<?xml version="1.0" encoding="UTF-8"?>
<svg width="239px" height="56px" viewBox="0 0 239 56" version="1.1" xmlns="http://www.w3.org/2000/svg" xmlns:xlink="http://www.w3.org/1999/xlink">
    <!-- Generator: Sketch 55 (78076) - https://sketchapp.com -->
    <title>Group 4</title>
    <desc>Created with Sketch.</desc>
    <g id="Plugin-HeartBeat" stroke="none" stroke-width="1" fill="none" fill-rule="evenodd">
        <g id="More-Optimization-V2" transform="translate(-155.000000, -85.000000)" fill="#FFFFFF" fill-rule="nonzero">
            <g id="Group-2" transform="translate(131.000000, 43.000000)">
                <g id="Group-4" transform="translate(24.000000, 42.000000)">
                    <g id="heartbeat-icon">
                        <path d="M42.454434,31.1030468 C41.7638252,31.1030468 41.1403176,30.6769677 40.8653805,30.0202757 L39.1344047,25.8772579 L32.6861489,38.2686979 C32.3827086,38.8513964 31.7966115,39.2121146 31.1618214,39.2121146 C31.1428192,39.2121146 31.1238171,39.2121146 31.104815,39.211498 C30.4480537,39.1893 29.8607689,38.7835691 29.5876132,38.1638738 L22.4404351,22 L18.8751595,30.068988 C18.5936904,30.7084149 17.9779024,31.1178455 17.3009514,31.1178455 L8,31.1178455 L31.4789195,55.9691694 L31.4789195,56 L31.4931711,55.9845847 L31.5074227,56 L31.5074227,55.9691694 L55,31.1030468 L42.454434,31.1030468 Z" id="Path"></path>
                        <path d="M4.40303686,28.9971415 L4.5239536,29.1249801 L16.1480424,29.1249801 L20.8393733,18.5254883 C21.1217109,17.8850599 21.7393989,17.4749881 22.4184386,17.4749881 C23.0974784,17.4749881 23.7151664,17.8850599 23.9975039,18.5248707 L31.293012,35 L37.806433,22.5033085 C38.1215313,21.8968468 38.7475583,21.5300055 39.4099199,21.5596492 C40.0752598,21.5899105 40.6643566,22.0098636 40.9294203,22.6428811 L43.6354534,29.1101583 L58.4891507,29.1101583 L58.5957718,28.9971415 L58.578498,28.9928184 C61.3149092,25.9123392 63,21.8122386 63,17.2946553 C63,7.74319341 55.5305625,0 46.3158736,0 C39.8620175,0 34.2748305,3.80551585 31.5002978,9.36371817 C28.7251695,3.80551585 23.1385782,4.38815587e-15 16.6841264,4.38815587e-15 C7.47003319,4.38815587e-15 0,7.74319341 0,17.2946553 C0,21.8122386 1.68509081,25.9123392 4.42150198,28.9928184 L4.40303686,28.9971415 Z" id="Path"></path>
                    </g>
                    <g id="Group-2" transform="translate(74.000000, 2.000000)">
                        <path d="M18.8616104,0 L18.8616104,20.2738928 L14.117279,20.2738928 L14.117279,11.9644522 L5.93041432,11.9644522 L5.93041432,20.2738928 L1.18608286,20.2738928 L1.18608286,0 L5.93041432,0 L5.93041432,7.8525641 L14.117279,7.8525641 L14.117279,0 L18.8616104,0 Z M37.3170256,16.1620047 L37.3170256,20.2738928 L22.8815293,20.2738928 L22.8815293,0 L37.056666,0 L37.056666,4.11188811 L27.6258607,4.11188811 L27.6258607,8.05244755 L35.7259388,8.05244755 L35.7259388,11.8502331 L27.6258607,11.8502331 L27.6258607,16.1620047 L37.3170256,16.1620047 Z M45.878774,0 L50.1602438,0 L57.6528161,20.2738928 L52.7927692,20.2738928 L51.2016824,15.733683 L44.8084065,15.733683 L43.2462486,20.2738928 L38.3862017,20.2738928 L45.878774,0 Z M50.4206035,12.506993 L48.0195089,5.33974359 L45.5605566,12.506993 L50.4206035,12.506993 Z M59.7634308,20.2738928 L59.7634308,0 L69.0206629,0 C69.9849628,0 70.8769267,0.199881451 71.6965816,0.59965035 C72.5162364,0.999419248 73.2249862,1.52291829 73.8228521,2.17016317 C74.420718,2.81740805 74.8883964,3.55030671 75.2259013,4.36888112 C75.5634063,5.18745553 75.7321562,6.01553583 75.7321562,6.85314685 C75.7321562,7.48135512 75.6550134,8.08575856 75.5007254,8.66637529 C75.3464374,9.24699203 75.1246518,9.79428647 74.8353618,10.3082751 C74.5460719,10.8222636 74.1941077,11.2838946 73.7794588,11.6931818 C73.3648099,12.102469 72.8971315,12.449882 72.3764096,12.7354312 L76.8893102,20.2738928 L71.5374729,20.2738928 L67.6031493,13.7348485 L64.5077623,13.7348485 L64.5077623,20.2738928 L59.7634308,20.2738928 Z M64.5077623,9.65151515 L68.8470898,9.65151515 C69.4063837,9.65151515 69.8885264,9.38976563 70.2935323,8.86625874 C70.6985383,8.34275185 70.9010382,7.67172126 70.9010382,6.85314685 C70.9010382,6.01553583 70.6696097,5.34926432 70.2067458,4.85431235 C69.7438819,4.35936038 69.2424535,4.11188811 68.7024456,4.11188811 L64.5077623,4.11188811 L64.5077623,9.65151515 Z M94.2453433,4.11188811 L87.9967116,4.11188811 L87.9967116,20.2738928 L83.2523802,20.2738928 L83.2523802,4.11188811 L76.9748196,4.11188811 L76.9748196,0 L94.2453433,0 L94.2453433,4.11188811 Z M113.626482,15.0769231 C113.626482,15.9526073 113.443267,16.7140605 113.076834,17.3613054 C112.7104,18.0085502 112.208971,18.5463265 111.572533,18.9746503 C110.936095,19.4029742 110.193596,19.7265918 109.345012,19.9455128 C108.496428,20.1644339 107.599643,20.2738928 106.654629,20.2738928 L96.6452465,20.2738928 L96.6452465,0 L108.072142,0 C108.785724,0 109.431796,0.152290629 110.010375,0.456876457 C110.588955,0.761462284 111.080741,1.1564661 111.485747,1.64189977 C111.890753,2.12733343 112.204145,2.67938696 112.425934,3.29807692 C112.647723,3.91676689 112.758616,4.54972481 112.758616,5.1969697 C112.758616,6.16783702 112.512723,7.0815808 112.020931,7.93822844 C111.529138,8.79487608 110.791459,9.44211125 109.807873,9.87995338 C110.984319,10.2226124 111.914855,10.831775 112.599508,11.7074592 C113.28416,12.5831435 113.626482,13.7062869 113.626482,15.0769231 Z M108.795364,14.1346154 C108.795364,13.5064071 108.612149,12.9733899 108.245716,12.5355478 C107.879282,12.0977057 107.416425,11.8787879 106.857131,11.8787879 L101.389578,11.8787879 L101.389578,16.3047786 L106.654629,16.3047786 C107.271781,16.3047786 107.782852,16.1048971 108.187858,15.7051282 C108.592864,15.3053593 108.795364,14.7818603 108.795364,14.1346154 Z M101.389578,3.997669 L101.389578,8.19522145 L106.047123,8.19522145 C106.567845,8.19522145 107.030702,8.02389449 107.435708,7.68123543 C107.840714,7.33857638 108.043214,6.80555917 108.043214,6.08216783 C108.043214,5.41588633 107.864821,4.90190546 107.50803,4.54020979 C107.151239,4.17851412 106.722132,3.997669 106.220696,3.997669 L101.389578,3.997669 Z M130.953672,16.1620047 L130.953672,20.2738928 L116.518175,20.2738928 L116.518175,0 L130.693312,0 L130.693312,4.11188811 L121.262507,4.11188811 L121.262507,8.05244755 L129.362585,8.05244755 L129.362585,11.8502331 L121.262507,11.8502331 L121.262507,16.1620047 L130.953672,16.1620047 Z M139.51542,0 L143.79689,0 L151.289462,20.2738928 L146.429415,20.2738928 L144.838329,15.733683 L138.445053,15.733683 L136.882895,20.2738928 L132.022848,20.2738928 L139.51542,0 Z M144.05725,12.506993 L141.656155,5.33974359 L139.197203,12.506993 L144.05725,12.506993 Z M165,4.11188811 L158.751368,4.11188811 L158.751368,20.2738928 L154.007037,20.2738928 L154.007037,4.11188811 L147.729476,4.11188811 L147.729476,0 L165,0 L165,4.11188811 Z M0,38.5203963 C0,37.302053 0.231428489,36.088487 0.694292409,34.879662 C1.15715633,33.670837 1.83215609,32.5905253 2.71931193,31.6386946 C3.60646778,30.6868639 4.68646739,29.9158926 5.95934317,29.3257576 C7.23221895,28.7356225 8.67864701,28.4405594 10.2986707,28.4405594 C12.2272704,28.4405594 13.9003055,28.8498405 15.3178263,29.6684149 C16.735347,30.4869893 17.7912395,31.5530237 18.4855354,32.8665501 L14.8405002,35.3793706 C14.6090683,34.8463454 14.3149612,34.4037508 13.9581703,34.0515734 C13.6013794,33.6993961 13.2108438,33.4138511 12.7865519,33.1949301 C12.3622599,32.976009 11.9283315,32.8237184 11.4847536,32.7380536 C11.0411757,32.6523888 10.6072473,32.6095571 10.1829553,32.6095571 C9.27651348,32.6095571 8.48579948,32.7904022 7.8107896,33.1520979 C7.13577971,33.5137936 6.5764942,33.9801836 6.13291628,34.5512821 C5.68933835,35.1223805 5.36148133,35.7696157 5.14933536,36.493007 C4.9371894,37.2163983 4.83111801,37.949297 4.83111801,38.6917249 C4.83111801,39.4912627 4.95647511,40.2622341 5.20719306,41.004662 C5.45791102,41.74709 5.81951803,42.4038433 6.29202495,42.9749417 C6.76453187,43.5460402 7.33346024,43.998153 7.99882712,44.3312937 C8.66419401,44.6644345 9.41151517,44.8310023 10.240813,44.8310023 C10.665105,44.8310023 11.1038548,44.7786524 11.5570757,44.673951 C12.0102966,44.5692497 12.4442251,44.4074409 12.858874,44.1885198 C13.2735229,43.9695988 13.6544156,43.6840538 14.0015636,43.3318765 C14.3487115,42.9796991 14.6283543,42.5466226 14.8405002,42.032634 L18.7169662,44.2884615 C18.4083902,45.0308895 17.9503547,45.697161 17.3428458,46.287296 C16.7353369,46.8774311 16.03623,47.3723756 15.2455041,47.7721445 C14.4547783,48.1719134 13.61585,48.4764947 12.7286942,48.6858974 C11.8415383,48.8953002 10.9736815,49 10.1250976,49 C8.64007588,49 7.27561208,48.7001778 6.0316653,48.1005245 C4.78771851,47.5008711 3.71736175,46.7061044 2.82056291,45.7162005 C1.92376406,44.7262965 1.2294786,43.6031531 0.737685684,42.3467366 C0.245892769,41.0903201 0,39.814886 0,38.5203963 Z M29.7665411,49 C28.2429473,49 26.8543764,48.7049369 25.6007866,48.1148019 C24.3471968,47.5246668 23.2768401,46.7489364 22.3896842,45.7875874 C21.5025284,44.8262384 20.8130644,43.7268904 20.3212714,42.4895105 C19.8294785,41.2521306 19.5835858,39.9766965 19.5835858,38.6631702 C19.5835858,37.3306072 19.8391214,36.045655 20.3502003,34.8082751 C20.8612792,33.5708951 21.5748504,32.4810653 22.4909352,31.5387529 C23.4070201,30.5964405 24.4918411,29.8445055 25.7454309,29.2829254 C26.9990207,28.7213453 28.3683059,28.4405594 29.8533276,28.4405594 C31.3769214,28.4405594 32.7654923,28.7356225 34.0190821,29.3257576 C35.2726719,29.9158926 36.3430286,30.6963821 37.2301845,31.6672494 C38.1173403,32.6381167 38.8019829,33.7422238 39.2841329,34.9796037 C39.7662828,36.2169837 40.0073541,37.4733813 40.0073541,38.7488345 C40.0073541,40.0813975 39.7518185,41.3663497 39.2407396,42.6037296 C38.7296607,43.8411095 38.0209109,44.9309393 37.1144691,45.8732517 C36.2080272,46.8155642 35.1280276,47.5722582 33.8744378,48.1433566 C32.6208481,48.7144551 31.2515628,49 29.7665411,49 Z M24.4147038,38.7202797 C24.4147038,39.5007809 24.530418,40.257475 24.76185,40.9903846 C24.9932819,41.7232943 25.3356032,42.3752885 25.7888242,42.9463869 C26.2420451,43.5174854 26.806152,43.9743573 27.4811619,44.3170163 C28.1561718,44.6596754 28.9276001,44.8310023 29.7954699,44.8310023 C30.7019118,44.8310023 31.4926258,44.6501572 32.1676357,44.2884615 C32.8426455,43.9267659 33.4019311,43.4556167 33.845509,42.875 C34.2890869,42.2943833 34.6217654,41.6376299 34.8435543,40.9047203 C35.0653433,40.1718106 35.1762361,39.4246347 35.1762361,38.6631702 C35.1762361,37.882669 35.0605219,37.1259749 34.8290899,36.3930653 C34.5976579,35.6601556 34.2505152,35.0129204 33.7876513,34.4513403 C33.3247874,33.8897602 32.7606804,33.4424065 32.0953135,33.1092657 C31.4299467,32.776125 30.6633398,32.6095571 29.7954699,32.6095571 C28.8890281,32.6095571 28.1031355,32.7856431 27.4377686,33.1378205 C26.7724017,33.4899979 26.2131162,33.9516288 25.7598953,34.5227273 C25.3066744,35.0938257 24.9691745,35.74582 24.7473855,36.4787296 C24.5255966,37.2116393 24.4147038,37.9588152 24.4147038,38.7202797 Z M47.5855216,37.2354312 L47.5855216,48.8286713 L42.8411901,48.8286713 L42.8411901,28.5547786 L46.5440829,28.5547786 L56.1195324,40.4621212 L56.1195324,28.5547786 L60.8638639,28.5547786 L60.8638639,48.8286713 L57.0452556,48.8286713 L47.5855216,37.2354312 Z M80.5342908,32.6666667 L74.2856591,32.6666667 L74.2856591,48.8286713 L69.5413276,48.8286713 L69.5413276,32.6666667 L63.2637671,32.6666667 L63.2637671,28.5547786 L80.5342908,28.5547786 L80.5342908,32.6666667 Z M82.934194,48.8286713 L82.934194,28.5547786 L92.1914261,28.5547786 C93.155726,28.5547786 94.0476899,28.75466 94.8673448,29.1544289 C95.6869996,29.5541978 96.3957494,30.0776968 96.9936153,30.7249417 C97.5914812,31.3721866 98.0591596,32.1050853 98.3966645,32.9236597 C98.7341695,33.7422341 98.9029194,34.5703144 98.9029194,35.4079254 C98.9029194,36.0361337 98.8257766,36.6405371 98.6714886,37.2211538 C98.5172006,37.8017706 98.295415,38.349065 98.006125,38.8630536 C97.7168351,39.3770422 97.3648709,39.8386732 96.950222,40.2479604 C96.5355731,40.6572476 96.0678947,41.0046606 95.5471728,41.2902098 L100.060073,48.8286713 L94.7082361,48.8286713 L90.7739125,42.289627 L87.6785255,42.289627 L87.6785255,48.8286713 L82.934194,48.8286713 Z M87.6785255,38.2062937 L92.017853,38.2062937 C92.5771469,38.2062937 93.0592896,37.9445442 93.4642955,37.4210373 C93.8693015,36.8975304 94.0718014,36.2264998 94.0718014,35.4079254 C94.0718014,34.5703144 93.8403729,33.9040429 93.377509,33.4090909 C92.9146451,32.9141389 92.4132167,32.6666667 91.8732088,32.6666667 L87.6785255,32.6666667 L87.6785255,38.2062937 Z M111.398991,49 C109.875398,49 108.486827,48.7049369 107.233237,48.1148019 C105.979647,47.5246668 104.90929,46.7489364 104.022135,45.7875874 C103.134979,44.8262384 102.445515,43.7268904 101.953722,42.4895105 C101.461929,41.2521306 101.216036,39.9766965 101.216036,38.6631702 C101.216036,37.3306072 101.471572,36.045655 101.982651,34.8082751 C102.49373,33.5708951 103.207301,32.4810653 104.123386,31.5387529 C105.03947,30.5964405 106.124291,29.8445055 107.377881,29.2829254 C108.631471,28.7213453 110.000756,28.4405594 111.485778,28.4405594 C113.009372,28.4405594 114.397943,28.7356225 115.651532,29.3257576 C116.905122,29.9158926 117.975479,30.6963821 118.862635,31.6672494 C119.749791,32.6381167 120.434433,33.7422238 120.916583,34.9796037 C121.398733,36.2169837 121.639804,37.4733813 121.639804,38.7488345 C121.639804,40.0813975 121.384269,41.3663497 120.87319,42.6037296 C120.362111,43.8411095 119.653361,44.9309393 118.746919,45.8732517 C117.840478,46.8155642 116.760478,47.5722582 115.506888,48.1433566 C114.253298,48.7144551 112.884013,49 111.398991,49 Z M106.047154,38.7202797 C106.047154,39.5007809 106.162868,40.257475 106.3943,40.9903846 C106.625732,41.7232943 106.968054,42.3752885 107.421274,42.9463869 C107.874495,43.5174854 108.438602,43.9743573 109.113612,44.3170163 C109.788622,44.6596754 110.56005,44.8310023 111.42792,44.8310023 C112.334362,44.8310023 113.125076,44.6501572 113.800086,44.2884615 C114.475096,43.9267659 115.034381,43.4556167 115.477959,42.875 C115.921537,42.2943833 116.254216,41.6376299 116.476005,40.9047203 C116.697794,40.1718106 116.808686,39.4246347 116.808686,38.6631702 C116.808686,37.882669 116.692972,37.1259749 116.46154,36.3930653 C116.230108,35.6601556 115.882966,35.0129204 115.420102,34.4513403 C114.957238,33.8897602 114.393131,33.4424065 113.727764,33.1092657 C113.062397,32.776125 112.29579,32.6095571 111.42792,32.6095571 C110.521478,32.6095571 109.735586,32.7856431 109.070219,33.1378205 C108.404852,33.4899979 107.845567,33.9516288 107.392346,34.5227273 C106.939125,35.0938257 106.601625,35.74582 106.379836,36.4787296 C106.158047,37.2116393 106.047154,37.9588152 106.047154,38.7202797 Z M124.47364,48.8286713 L124.47364,28.5547786 L129.217972,28.5547786 L129.217972,44.7167832 L139.169496,44.7167832 L139.169496,48.8286713 L124.47364,48.8286713 Z" id="HEARTBEATCONTROL"></path>
                    </g>
                </g>
            </g>
        </g>
    </g>
</svg>